# xmcd
#
# Track frame offsets:
#	150
#	23876
#	41823
#	57098
#	75196
#	93590
#	109356
#	123825
#	143192
#	166918
#	184865
#	200140
#	218238
#	236632
#	252398
#	266867
#
# Disc length: 3816 seconds
#
# Revision: 1
# Processed by: cddbd v1.5.1PL2 Copyright (c) Steve Scherf et al.
# Submitted via: audiograbber 1.83.01
#
DISCID=e90ee610
DTITLE=Karaoke Party - KP6013
DYEAR=1900
DGENRE=Karaoke Country
TTITLE0=Dixie Chicks - Travelin' Soldier
TTITLE1=Gary Allan - Man to Man
TTITLE2=Mark Wills - 19 Somethin
TTITLE3=Blake Shelton - The Baby
TTITLE4=Diamond Rio - I Believe
TTITLE5=Terri Clark - I Just Wanna Be Mad
TTITLE6=Shania Twain - Up!
TTITLE7=Faith Hill - When The Lights Go Down
TTITLE8=Dixie Chicks - Travelin' Soldier
TTITLE9=Gary Allan - Man to Man
TTITLE10=Mark Wills - 19 Somethin
TTITLE11=Blake Shelton - The Baby
TTITLE12=Diamond Rio - I Believe
TTITLE13=Terri Clark - I Just Wanna Be Mad
TTITLE14=Shania Twain - Up!
TTITLE15=Faith Hill - When The Lights Go Down
EXTD=Tracks 9-16 Demos
EXTT0=
EXTT1=
EXTT2=
EXTT3=
EXTT4=
EXTT5=
EXTT6=
EXTT7=
EXTT8=
EXTT9=
EXTT10=
EXTT11=
EXTT12=
EXTT13=
EXTT14=
EXTT15=
PLAYORDER=
